<svg xmlns="http://www.w3.org/2000/svg" id="Layer_1" data-name="Layer 1" viewBox="0 0 216.9 134.39"><defs><style>      .cls-1 {        stroke: #2f7da3;      }      .cls-1, .cls-2 {        fill: none;        stroke-miterlimit: 10;        stroke-width: 1.42px;      }      .cls-2 {        stroke: #fff;      }      .cls-3 {        fill: #122051;      }      .cls-3, .cls-4, .cls-5 {        stroke-width: 0px;      }      .cls-4 {        fill: #2f7da3;      }      .cls-5 {        fill: #fff;      }    </style></defs><g><path class="cls-3" d="M5.54,114.97v-.07c0-7.16,5.4-13.03,13.14-13.03,4.62,0,7.44,1.5,9.74,3.7.11.11.12.28.02.4l-3.16,3.65c-.1.12-.28.13-.4.02-1.88-1.65-3.8-2.65-6.23-2.65-4.25,0-7.31,3.53-7.31,7.85v.03c0,4.97,4.59,8.91,9.42,7.72,1.65-.41,2.94-1.31,4.31-2.53.11-.1.29-.1.39,0l3.14,3.17c.11.11.11.29,0,.4-2.54,2.65-5.4,4.29-10.14,4.29-7.42,0-12.92-5.72-12.92-12.96Z"></path><path class="cls-3" d="M30.09,117.96v-.07c0-5.54,4.46-10.04,10.47-10.04s10.4,4.43,10.4,9.97v.07c0,5.54-4.46,10.04-10.47,10.04s-10.4-4.43-10.4-9.97ZM45.57,117.96v-.07c0-2.84-2.05-5.33-5.08-5.33s-5,2.41-5,5.26v.07c0,2.84,2.05,5.33,5.08,5.33s5-2.41,5-5.26Z"></path><path class="cls-3" d="M53.81,102.3h18.44c.16,0,.28.13.28.28v4.36c0,.16-.13.28-.28.28h-12.93c-.16,0-.28.13-.28.28v4.54c0,.16.13.28.28.28h11.31c.16,0,.28.13.28.28v4.36c0,.16-.13.28-.28.28h-11.31c-.16,0-.28.13-.28.28v4.72c0,.16.13.28.28.28h13.11c.16,0,.28.13.28.28v4.36c0,.16-.13.28-.28.28h-18.62c-.16,0-.28-.13-.28-.28v-24.63c0-.16.13-.28.28-.28Z"></path><path class="cls-3" d="M74.86,108.2h5.18c.12,0,.23.08.27.19l3.99,11.93c.09.26.45.26.54,0l4.02-11.93c.04-.12.15-.19.27-.19h5.07c.2,0,.34.2.26.39l-7.37,18.87c-.04.11-.15.18-.26.18h-4.58c-.12,0-.22-.07-.26-.18l-7.37-18.87c-.07-.19.06-.39.26-.39Z"></path><path class="cls-3" d="M94.49,117.96v-.07c0-5.54,4.46-10.04,10.47-10.04s10.4,4.43,10.4,9.97v.07c0,5.54-4.46,10.04-10.47,10.04s-10.4-4.43-10.4-9.97ZM109.97,117.96v-.07c0-2.84-2.05-5.33-5.07-5.33s-5,2.41-5,5.26v.07c0,2.84,2.05,5.33,5.08,5.33s5-2.41,5-5.26Z"></path><path class="cls-3" d="M117.89,101.22h4.9c.16,0,.28.13.28.28v25.71c0,.16-.13.28-.28.28h-4.9c-.16,0-.28-.13-.28-.28v-25.71c0-.16.13-.28.28-.28Z"></path><path class="cls-3" d="M126.1,120.69v-12.21c0-.16.13-.28.28-.28h4.9c.16,0,.28.13.28.28v10.48c0,2.59,1.22,3.92,3.31,3.92s3.42-1.33,3.42-3.92v-10.48c0-.16.13-.28.28-.28h4.9c.16,0,.28.13.28.28v18.73c0,.16-.13.28-.28.28h-4.9c-.16,0-.28-.13-.28-.28v-2.45c-1.26,1.62-2.88,3.1-5.65,3.1-4.14,0-6.55-2.74-6.55-7.16Z"></path><path class="cls-3" d="M149.03,122.03v-8.86c0-.16-.13-.28-.28-.28h-1.74c-.16,0-.28-.13-.28-.28v-4.11c0-.16.13-.28.28-.28h1.74c.16,0,.28-.13.28-.28v-4.36c0-.16.13-.28.28-.28h4.9c.16,0,.28.13.28.28v4.36c0,.16.13.28.28.28h3.97c.16,0,.28.13.28.28v4.11c0,.16-.13.28-.28.28h-3.97c-.16,0-.28.13-.28.28v7.96c0,1.26.54,1.87,1.76,1.87.84,0,1.6-.17,2.29-.48.19-.09.41.04.41.25v3.77c0,.1-.05.2-.14.25-1.12.64-2.42,1.03-4.18,1.03-3.35,0-5.62-1.33-5.62-5.8Z"></path><path class="cls-3" d="M164.35,101.22h.9c1.34,0,2.43,1.09,2.43,2.43h0c0,1.34-1.09,2.43-2.43,2.43h-.9c-1.34,0-2.43-1.09-2.43-2.43h0c0-1.34,1.09-2.43,2.43-2.43ZM162.35,108.2h4.9c.16,0,.28.13.28.28v18.73c0,.16-.13.28-.28.28h-4.9c-.16,0-.28-.13-.28-.28v-18.73c0-.16.13-.28.28-.28Z"></path><path class="cls-3" d="M170.49,117.96v-.07c0-5.54,4.46-10.04,10.47-10.04s10.4,4.43,10.4,9.97v.07c0,5.54-4.46,10.04-10.47,10.04s-10.4-4.43-10.4-9.97ZM185.97,117.96v-.07c0-2.84-2.05-5.33-5.08-5.33s-5,2.41-5,5.26v.07c0,2.84,2.05,5.33,5.08,5.33s5-2.41,5-5.26Z"></path><path class="cls-3" d="M194.35,108.2h4.9c.16,0,.28.13.28.28v2.45c1.26-1.62,2.88-3.1,5.65-3.1,4.14,0,6.55,2.74,6.55,7.16v12.21c0,.16-.13.28-.28.28h-4.9c-.16,0-.28-.13-.28-.28v-10.48c0-2.59-1.22-3.92-3.31-3.92s-3.42,1.33-3.42,3.92v10.48c0,.16-.13.28-.28.28h-4.9c-.16,0-.28-.13-.28-.28v-18.73c0-.16.13-.28.28-.28Z"></path></g><g><rect class="cls-4" x="61.33" y="62.33" width="4.4" height="1.42" transform="translate(-25.75 56.77) rotate(-40.76)"></rect><rect class="cls-4" x="91.84" y="68.38" width="1.42" height="4.83" transform="translate(-16.55 29.86) rotate(-16.85)"></rect><rect class="cls-4" x="52.71" y="40.4" width="4.77" height="1.42"></rect><rect class="cls-4" x="62.86" y="17.11" width="1.42" height="4.4" transform="translate(7.44 54.86) rotate(-49.24)"></rect><rect class="cls-4" x="90.18" y="10.85" width="4.83" height="1.42" transform="translate(54.68 96.81) rotate(-73.14)"></rect><g><path class="cls-3" d="M159.78,59.45h-28.73c-.31,0-.61.12-.84.32l-9.46,8.55c-.86.78-.32,2.21.84,2.21h38.19c.69,0,1.26-.57,1.26-1.27v-8.55c0-.7-.56-1.27-1.26-1.27Z"></path><path class="cls-3" d="M159.93,12.93h-40.18c-.7,0-1.27.57-1.27,1.27v21.25c-5.96,5.65-11.93,11.31-17.89,16.96-3.47,3.16-6.66,5.42-10.97,6.27l.95,3.13-1.36.41-1-3.32c-.78.09-1.6.14-2.47.14-4.34,0-8.26-1.72-11.19-4.51l-2.86,2.42-.91-1.08,2.79-2.35c-2.67-3.01-4.29-6.99-4.29-11.29v-.4h-4.47v-1.42h4.48c.15-4.45,1.75-8.49,4.38-11.51l-2.86-2.41.91-1.08,2.92,2.46c2.85-2.75,6.67-4.42,11.05-4.42.86,0,1.69.06,2.51.17l1.05-3.48,1.36.41-1,3.32c3.46.76,6.5,2.51,9.46,5,.63.53,1.58.44,2.12-.19l5.96-6.87c.55-.64.48-1.59-.14-2.16-5.06-4.61-11.28-7.69-21.23-7.69-17.4,0-29.53,13.19-29.53,29.29v.16c0,16.26,12.38,29.13,29.04,29.13,10.92,0,17.4-3.88,23.22-10.11,3.32-3.31,6.64-6.63,9.96-9.94h0c2.17-2.38,4.96-3.2,4.96-3.2,2-.66,4.14-.74,5.11-.77.49-.02.9-.01,1.19,0,.37,0,.74,0,1.12.01,8.48.02,16.95.04,25.43.06.7,0,1.27-.57,1.27-1.27v-8.54c0-.7-.57-1.27-1.27-1.27h-24.16c-.7,0-1.27-.57-1.27-1.27v-8.95c0-.7.57-1.27,1.27-1.27h27.8c.7,0,1.27-.57,1.27-1.27v-8.55c0-.7-.57-1.27-1.27-1.27Z"></path><path class="cls-5" d="M64.81,41.82h4.47v-.74c0-.23,0-.45.02-.68h-4.48v1.42Z"></path><path class="cls-5" d="M70.81,26.48l2.86,2.41c.31-.36.64-.7.98-1.03l-2.92-2.46-.91,1.08Z"></path><path class="cls-5" d="M89.25,20.13l-1.05,3.48c.48.06.94.15,1.41.25l1-3.32-1.36-.41Z"></path><path class="cls-5" d="M71.68,56.95l2.86-2.42c-.34-.33-.67-.67-.99-1.02l-2.79,2.35.91,1.08Z"></path><path class="cls-5" d="M90.56,61.81l-.95-3.13c-.46.09-.93.17-1.41.22l1,3.32,1.36-.41Z"></path></g><path class="cls-1" d="M62.52,14.33c2.01-1.07,10.7-6.31,12.74-7.7h16.34"></path><path class="cls-1" d="M58.5,18.05c-2.92,4.29-5.85,8.59-8.77,12.88,0,2.57,0,5.13,0,7.7"></path><path class="cls-1" d="M58.46,64.3c-2.92-4.29-5.85-8.59-8.77-12.88,0-2.57,0-5.13,0-7.7"></path><g><path class="cls-3" d="M90.92,6.77c0-1.73,1.4-3.13,3.11-3.13s3.12,1.4,3.12,3.13-1.4,3.11-3.12,3.11-3.11-1.4-3.11-3.11ZM95.95,6.77c0-1.06-.86-1.92-1.91-1.92s-1.9.86-1.9,1.92.85,1.9,1.9,1.9,1.91-.85,1.91-1.9Z"></path><path class="cls-3" d="M94.04,10.24c-1.91,0-3.47-1.56-3.47-3.47s1.56-3.48,3.47-3.48,3.48,1.56,3.48,3.48-1.56,3.47-3.48,3.47ZM94.04,3.99c-1.52,0-2.76,1.25-2.76,2.78s1.24,2.76,2.76,2.76,2.77-1.24,2.77-2.76-1.24-2.78-2.77-2.78ZM94.04,9.03c-1.24,0-2.26-1.01-2.26-2.25s1.01-2.27,2.26-2.27,2.26,1.02,2.26,2.27-1.02,2.25-2.26,2.25ZM94.04,5.21c-.85,0-1.55.7-1.55,1.56s.69,1.55,1.55,1.55,1.56-.69,1.56-1.55-.7-1.56-1.56-1.56Z"></path></g><g><path class="cls-3" d="M56.77,16.14c0-1.72,1.4-3.12,3.12-3.12s3.12,1.4,3.12,3.12-1.4,3.12-3.12,3.12-3.12-1.4-3.12-3.12ZM61.81,16.14c0-1.05-.86-1.91-1.91-1.91s-1.91.86-1.91,1.91.86,1.91,1.91,1.91,1.91-.86,1.91-1.91Z"></path><path class="cls-3" d="M59.9,19.62c-1.92,0-3.48-1.56-3.48-3.48s1.56-3.48,3.48-3.48,3.48,1.56,3.48,3.48-1.56,3.48-3.48,3.48ZM59.9,13.37c-1.53,0-2.77,1.24-2.77,2.77s1.24,2.77,2.77,2.77,2.77-1.24,2.77-2.77-1.24-2.77-2.77-2.77ZM59.9,18.41c-1.25,0-2.26-1.02-2.26-2.27s1.02-2.26,2.26-2.26,2.27,1.02,2.27,2.26-1.02,2.27-2.27,2.27ZM59.9,14.58c-.86,0-1.56.7-1.56,1.56s.7,1.56,1.56,1.56,1.56-.7,1.56-1.56-.7-1.56-1.56-1.56Z"></path></g><g><path class="cls-3" d="M46.61,41.38c-.07-1.72,1.27-3.18,2.99-3.26s3.18,1.27,3.25,2.99-1.27,3.18-2.99,3.25-3.18-1.27-3.25-2.99ZM51.64,41.16c-.05-1.05-.94-1.87-1.99-1.83s-1.87.94-1.83,1.99.94,1.87,1.99,1.83,1.87-.94,1.83-1.99Z"></path><path class="cls-3" d="M49.73,44.72c-1.85,0-3.39-1.46-3.47-3.33h0c-.08-1.92,1.41-3.54,3.32-3.62,1.93-.08,3.54,1.41,3.62,3.33.04.93-.28,1.81-.91,2.5-.63.69-1.49,1.08-2.41,1.12-.05,0-.1,0-.15,0ZM46.97,41.36c.07,1.52,1.36,2.71,2.88,2.65.74-.03,1.42-.35,1.92-.9.5-.55.76-1.25.73-1.99-.07-1.53-1.37-2.72-2.89-2.65-1.53.07-2.71,1.36-2.65,2.89h0ZM49.73,43.51c-.57,0-1.11-.21-1.53-.6-.45-.41-.71-.97-.73-1.57-.03-.6.19-1.18.59-1.63.41-.45.97-.71,1.57-.73.6-.03,1.18.19,1.63.6s.71.97.73,1.57h0c.03.6-.19,1.18-.6,1.63-.41.45-.97.71-1.57.73-.03,0-.07,0-.1,0ZM49.73,39.68s-.05,0-.07,0c-.41.02-.8.2-1.08.5-.28.31-.43.71-.41,1.12.04.86.76,1.53,1.62,1.49.41-.02.8-.2,1.08-.5.28-.31.43-.7.41-1.12h0c-.02-.42-.2-.8-.5-1.08-.29-.27-.66-.41-1.05-.41Z"></path></g><path class="cls-1" d="M62.48,68.03c2.01,1.07,10.7,6.31,12.74,7.7h16.34"></path><g><path class="cls-3" d="M93.99,72.47c1.72,0,3.12,1.4,3.12,3.11s-1.4,3.13-3.12,3.13-3.11-1.4-3.11-3.13,1.4-3.11,3.11-3.11ZM93.99,73.68c-1.05,0-1.9.85-1.9,1.9s.85,1.92,1.9,1.92,1.91-.86,1.91-1.92-.86-1.9-1.91-1.9Z"></path><path class="cls-3" d="M93.99,79.07c-1.91,0-3.47-1.56-3.47-3.48s1.56-3.47,3.47-3.47,3.48,1.55,3.48,3.47-1.56,3.48-3.48,3.48ZM93.99,72.82c-1.52,0-2.76,1.24-2.76,2.76s1.24,2.78,2.76,2.78,2.77-1.25,2.77-2.78-1.24-2.76-2.77-2.76ZM93.99,77.85c-1.24,0-2.26-1.02-2.26-2.27s1.01-2.25,2.26-2.25,2.26,1.01,2.26,2.25-1.02,2.27-2.26,2.27ZM93.99,74.03c-.85,0-1.55.69-1.55,1.55s.69,1.57,1.55,1.57,1.56-.7,1.56-1.57-.7-1.55-1.56-1.55Z"></path></g><g><path class="cls-3" d="M59.85,63.09c1.72,0,3.12,1.4,3.12,3.12s-1.4,3.12-3.12,3.12-3.12-1.4-3.12-3.12,1.4-3.12,3.12-3.12ZM59.85,64.3c-1.05,0-1.91.86-1.91,1.91s.86,1.91,1.91,1.91,1.91-.86,1.91-1.91-.86-1.91-1.91-1.91Z"></path><path class="cls-3" d="M59.85,69.69c-1.92,0-3.48-1.56-3.48-3.48s1.56-3.48,3.48-3.48,3.48,1.56,3.48,3.48-1.56,3.48-3.48,3.48ZM59.85,63.44c-1.53,0-2.77,1.24-2.77,2.77s1.24,2.77,2.77,2.77,2.77-1.24,2.77-2.77-1.24-2.77-2.77-2.77ZM59.85,68.48c-1.25,0-2.26-1.02-2.26-2.26s1.02-2.27,2.26-2.27,2.27,1.02,2.27,2.27-1.02,2.26-2.27,2.26ZM59.85,64.65c-.86,0-1.56.7-1.56,1.56s.7,1.56,1.56,1.56,1.56-.7,1.56-1.56-.7-1.56-1.56-1.56Z"></path></g><g><path class="cls-5" d="M87.56,17.88c0-1.73,1.4-3.13,3.11-3.13s3.12,1.4,3.12,3.13-1.4,3.11-3.12,3.11-3.11-1.4-3.11-3.11ZM92.59,17.88c0-1.06-.86-1.92-1.91-1.92s-1.9.86-1.9,1.92.85,1.9,1.9,1.9,1.91-.85,1.91-1.9Z"></path><path class="cls-5" d="M90.68,21.34c-1.91,0-3.47-1.56-3.47-3.47s1.56-3.48,3.47-3.48,3.48,1.56,3.48,3.48-1.56,3.47-3.48,3.47ZM90.68,15.1c-1.52,0-2.76,1.25-2.76,2.78s1.24,2.76,2.76,2.76,2.77-1.24,2.77-2.76-1.24-2.78-2.77-2.78ZM90.68,20.13c-1.24,0-2.26-1.01-2.26-2.25s1.01-2.27,2.26-2.27,2.26,1.02,2.26,2.27-1.02,2.25-2.26,2.25ZM90.68,16.31c-.85,0-1.55.7-1.55,1.56s.69,1.55,1.55,1.55,1.56-.69,1.56-1.55-.7-1.56-1.56-1.56Z"></path></g><path class="cls-2" d="M71.24,22.12c1.27-.85,5.74-3.8,6.71-4.43h10.79"></path><path class="cls-2" d="M61.68,38.63c.03-1.97.07-4.13.08-4.81,1.53-2.24,5.7-8.35,5.7-8.35"></path><g><path class="cls-5" d="M66.06,24.01c0-1.72,1.4-3.12,3.12-3.12s3.12,1.4,3.12,3.12-1.4,3.12-3.12,3.12-3.12-1.4-3.12-3.12ZM71.09,24.01c0-1.05-.86-1.91-1.91-1.91s-1.91.86-1.91,1.91.86,1.91,1.91,1.91,1.91-.86,1.91-1.91Z"></path><path class="cls-5" d="M69.18,27.49c-1.92,0-3.48-1.56-3.48-3.48s1.56-3.48,3.48-3.48,3.48,1.56,3.48,3.48-1.56,3.48-3.48,3.48ZM69.18,21.25c-1.53,0-2.77,1.24-2.77,2.77s1.24,2.77,2.77,2.77,2.77-1.24,2.77-2.77-1.24-2.77-2.77-2.77ZM69.18,26.28c-1.25,0-2.26-1.02-2.26-2.27s1.02-2.27,2.26-2.27,2.27,1.02,2.27,2.27-1.02,2.27-2.27,2.27ZM69.18,22.46c-.86,0-1.56.7-1.56,1.56s.7,1.56,1.56,1.56,1.56-.7,1.56-1.56-.7-1.56-1.56-1.56Z"></path></g><g><path class="cls-5" d="M90.63,61.36c1.72,0,3.12,1.4,3.12,3.11s-1.4,3.13-3.12,3.13-3.11-1.4-3.11-3.13,1.4-3.11,3.11-3.11ZM90.63,62.57c-1.05,0-1.9.85-1.9,1.9s.85,1.92,1.9,1.92,1.91-.86,1.91-1.92-.86-1.9-1.91-1.9Z"></path><path class="cls-5" d="M90.63,67.96c-1.91,0-3.47-1.56-3.47-3.48s1.56-3.47,3.47-3.47,3.48,1.56,3.48,3.47-1.56,3.48-3.48,3.48ZM90.63,61.72c-1.52,0-2.76,1.24-2.76,2.76s1.24,2.78,2.76,2.78,2.77-1.25,2.77-2.78-1.24-2.76-2.77-2.76ZM90.63,66.75c-1.24,0-2.26-1.02-2.26-2.27s1.01-2.25,2.26-2.25,2.26,1.01,2.26,2.25-1.02,2.27-2.26,2.27ZM90.63,62.93c-.85,0-1.55.69-1.55,1.55s.69,1.56,1.55,1.56,1.56-.7,1.56-1.56-.7-1.55-1.56-1.55Z"></path></g><path class="cls-2" d="M71.2,60.23c1.27.85,5.74,3.8,6.71,4.43h10.79"></path><path class="cls-2" d="M61.64,43.72c.03,1.97.07,4.13.08,4.81,1.53,2.24,5.7,8.35,5.7,8.35"></path><g><path class="cls-5" d="M69.13,55.21c1.72,0,3.12,1.4,3.12,3.12s-1.4,3.12-3.12,3.12-3.12-1.4-3.12-3.12,1.4-3.12,3.12-3.12ZM69.13,56.43c-1.05,0-1.91.86-1.91,1.91s.86,1.91,1.91,1.91,1.91-.86,1.91-1.91-.86-1.91-1.91-1.91Z"></path><path class="cls-5" d="M69.13,61.81c-1.92,0-3.48-1.56-3.48-3.48s1.56-3.48,3.48-3.48,3.48,1.56,3.48,3.48-1.56,3.48-3.48,3.48ZM69.13,55.57c-1.53,0-2.77,1.24-2.77,2.77s1.24,2.77,2.77,2.77,2.77-1.24,2.77-2.77-1.24-2.77-2.77-2.77ZM69.13,60.6c-1.25,0-2.26-1.02-2.26-2.27s1.02-2.27,2.26-2.27,2.27,1.02,2.27,2.27-1.02,2.27-2.27,2.27ZM69.13,56.78c-.86,0-1.56.7-1.56,1.56s.7,1.56,1.56,1.56,1.56-.7,1.56-1.56-.7-1.56-1.56-1.56Z"></path></g><g><path class="cls-5" d="M58.56,41.38c-.07-1.72,1.27-3.18,2.99-3.26s3.18,1.27,3.25,2.99-1.27,3.18-2.99,3.25-3.18-1.27-3.25-2.99ZM63.59,41.16c-.05-1.05-.94-1.87-1.99-1.83s-1.87.94-1.83,1.99.94,1.87,1.99,1.83,1.87-.94,1.83-1.99Z"></path><path class="cls-5" d="M61.68,44.72c-.87,0-1.7-.32-2.35-.92-.69-.63-1.08-1.49-1.12-2.41h0c-.04-.93.28-1.82.91-2.5s1.49-1.08,2.41-1.12c.93-.04,1.81.28,2.5.91.69.63,1.08,1.49,1.12,2.41.04.93-.28,1.81-.91,2.5-.63.69-1.49,1.08-2.41,1.12-.05,0-.1,0-.15,0ZM61.69,38.47s-.08,0-.12,0c-.74.03-1.42.35-1.92.9-.5.55-.76,1.25-.73,1.99h0c.03.74.35,1.42.9,1.92s1.25.76,1.99.73c.74-.03,1.42-.35,1.92-.9.5-.55.76-1.25.73-1.99-.03-.74-.35-1.42-.9-1.92-.52-.47-1.18-.73-1.87-.73ZM61.68,43.51c-.57,0-1.11-.21-1.53-.6-.45-.41-.71-.97-.73-1.57-.03-.6.19-1.18.59-1.63.41-.45.97-.71,1.57-.73.61-.03,1.18.19,1.63.6s.71.97.73,1.57h0c.05,1.25-.92,2.31-2.17,2.36-.03,0-.07,0-.1,0ZM61.69,39.68s-.05,0-.07,0c-.41.02-.8.2-1.08.5-.28.31-.43.71-.41,1.12.02.41.2.8.5,1.08.31.28.7.43,1.12.41.86-.04,1.53-.76,1.49-1.62-.02-.42-.2-.8-.5-1.08-.29-.27-.66-.41-1.05-.41Z"></path></g></g></svg>